<svg width="68" height="40" viewBox="0 0 68 40" fill="none" xmlns="http://www.w3.org/2000/svg">
<path d="M0.312284 20.2999C0.50226 19.7965 0.783762 19.1884 0.937818 18.9486C2.53232 16.4663 5.38362 14.7914 8.86941 14.2897C10.2775 14.087 11.8751 14.4766 12.8681 15.2651C13.3084 15.6147 13.6958 16.3291 13.6997 16.7989C13.7051 17.4361 13.0582 18.4562 12.6488 18.4562C12.4968 18.4562 12.4982 18.4286 12.6594 18.2591C13.1168 17.7781 13.0189 16.7072 12.4509 15.9808C11.8424 15.2024 10.4181 14.6276 9.09829 14.6276C8.27848 14.6276 6.38004 15.0911 5.40964 15.5281C3.42003 16.4241 1.62135 18.5251 1.1871 20.4604C0.820755 22.093 1.23651 23.8994 2.28746 25.2408C2.62015 25.6653 3.68518 26.4168 4.34389 26.6918C4.98625 26.9599 6.60379 27.2397 7.4971 27.2372C8.8465 27.2335 10.8915 26.6342 12.3647 25.8105C13.9193 24.9415 16.1783 22.6634 17.4277 20.705C19.2839 17.7956 21.3182 12.8379 23.0168 7.08305C24.6532 1.53961 24.7049 1.32678 24.474 1.08603C24.173 0.7722 23.7552 0.590005 22.8179 0.364232C22.0721 0.184514 22.029 0.15929 22.3538 0.0909386C22.5507 0.0494999 23.289 0.00952481 23.9946 0.00220547C25.0908 -0.00916766 25.3092 0.0188716 25.496 0.195099C25.7438 0.42898 25.6633 0.235974 29.1704 8.99734C30.7711 12.9962 31.6438 15.0888 31.7877 15.2732C31.9194 15.442 31.9524 15.4465 32.0044 15.3032C32.2407 14.6534 34.3941 7.91182 35.3135 4.94355C35.5149 4.29325 35.8039 3.38115 35.9559 2.91665C36.108 2.45216 36.3736 1.62868 36.5463 1.08682C36.6509 0.75835 36.7557 0.429993 36.8603 0.101524C37.5452 0.105465 38.23 0.109293 38.9149 0.113234C40.9068 0.124607 40.9513 0.1299 40.3729 0.286421C38.6612 0.749454 38.6095 0.853614 39.1772 2.69696C39.8046 4.73478 40.7959 7.83108 41.9513 11.362C42.5085 13.0652 43.0414 14.6993 43.1351 14.9936C43.2289 15.2878 43.3573 15.5284 43.4205 15.5284C43.4836 15.5284 43.5351 15.5075 43.5351 15.4818C43.5351 15.4561 43.966 14.0754 44.4927 12.4133C45.7404 8.47564 46.0732 7.41782 47.2331 3.70489C47.7651 2.00174 48.2511 0.492939 48.3129 0.35207C48.4241 0.0985958 48.4454 0.0962311 50.3657 0.12686C51.0124 0.137219 51.6592 0.147467 52.306 0.157826C52.0673 0.226741 51.8287 0.295655 51.59 0.364569C50.775 0.599914 50.337 0.925569 50.337 1.29627C50.337 1.56517 51.0857 4.05937 52.1247 7.25196C52.4674 8.30482 52.8652 9.54629 53.0086 10.0108C53.0956 10.2923 53.1824 10.5738 53.2694 10.8553C54.0561 10.8819 54.8429 10.9086 55.6296 10.9352C58.8187 11.043 60.1037 11.3752 60.6301 12.228C60.8297 12.5514 60.8345 12.6186 60.6782 12.9038C60.429 13.3585 60.0825 13.621 59.5939 13.725C59.0708 13.8363 59.0568 13.7423 59.5525 13.4452C60.0125 13.1696 60.1463 12.7569 59.9317 12.2753C59.7278 11.8175 58.8319 11.4128 57.6722 11.2547C56.6414 11.1142 53.5966 11.101 53.5077 11.2367C53.4436 11.3346 53.6634 12.0792 54.6914 15.2469C54.9728 16.114 55.4831 17.7102 55.8253 18.794C56.1676 19.8778 56.6791 21.474 56.9623 22.3411C57.2455 23.2081 57.6253 24.3898 57.8063 24.967C58.0996 25.9023 58.1938 26.0648 58.6712 26.4614C59.0352 26.7637 59.4684 26.9813 60.0224 27.1401C60.471 27.2687 60.808 27.4196 60.7714 27.4755C60.6883 27.6023 57.4939 27.6077 57.2829 27.4814C57.0477 27.3406 56.316 25.2216 53.797 17.3864C53.2594 15.7142 52.5888 13.6367 52.3068 12.7696C52.1359 12.2441 51.9649 11.7187 51.7941 11.1931C50.8345 11.1831 49.875 11.173 48.9154 11.163C47.9559 11.1529 46.9963 11.1428 46.0368 11.1328C45.999 11.2267 45.9611 11.3206 45.9233 11.4145C45.725 11.9068 44.2728 16.692 44.1794 17.1612C44.0533 17.7948 44.0689 17.8883 44.5551 19.407C45.7715 23.2072 46.802 26.0782 47.0379 26.3239C47.4546 26.758 48.1058 27.0969 48.8263 27.255C49.1978 27.3366 49.5017 27.4435 49.5017 27.493C49.5017 27.5424 48.6344 27.5689 47.5745 27.5519C46.9321 27.5415 46.2897 27.5313 45.6473 27.5209C45.3934 26.7515 45.1394 25.9819 44.8855 25.2125C44.4665 23.9429 43.9336 22.3277 43.7013 21.6231C43.4689 20.9185 43.2341 20.3865 43.1794 20.4407C43.1248 20.495 42.8051 21.3755 42.4692 22.3974C42.1332 23.4193 41.7205 24.5845 41.5519 24.9868C41.2244 25.7681 40.1001 27.6699 39.3408 28.7269C38.9229 29.3085 38.8989 29.3796 39.0889 29.4727C39.3323 29.5919 44.2412 31.0543 45.5638 31.4015C48.871 32.2698 51.7104 32.6698 54.6329 32.6789C56.5964 32.6851 57.0115 32.6518 58.3856 32.3788C62.5033 31.5607 66.0958 29.3735 67.3358 26.9297C67.5951 26.4187 67.8501 26.0007 67.9026 26.0007C68.1034 26.0007 67.9837 26.5014 67.6353 27.1182C66.1322 29.7794 62.5025 31.949 58.0936 32.8215C56.9136 33.055 56.395 33.0932 54.3943 33.0931C49.6524 33.0929 47.5028 32.7112 40.6386 30.6504C39.9317 30.4382 39.2247 30.2259 38.5177 30.0136C38.1109 30.424 37.7041 30.8342 37.2973 31.2445C35.439 33.119 34.3995 34.0436 33.1238 34.9569C29.4625 37.5782 25.5568 38.9821 21.8765 38.9998C20.2739 39.0074 19.3704 38.8306 18.1772 38.2758C16.6407 37.5613 16.0313 36.6655 16.032 35.1218C16.0325 33.9347 16.3224 33.3091 17.4438 32.0739C18.327 31.1011 19.18 30.5047 20.8231 29.7115C22.7065 28.8023 24.9827 28.2635 28.0516 28.0001C30.3949 27.799 33.3538 28.0751 36.4052 28.7795C37.6698 29.0714 37.692 29.0726 37.9455 28.8613C38.2553 28.6034 39.5633 26.7304 39.9828 25.9444C40.5761 24.8326 42.5805 18.9815 42.5805 18.3616C42.5805 18.2222 42.094 16.6281 41.4992 14.8195C40.9045 13.0108 40.2291 10.9482 39.9983 10.236C39.7675 9.52377 39.5324 8.81435 39.4759 8.65952C39.4193 8.50469 39.1507 7.69393 38.879 6.85784C37.9646 4.04473 37.5302 2.80405 37.4596 2.80472C37.4211 2.80506 36.701 4.64199 35.8594 6.88666C34.242 11.2008 33.8651 12.198 33.5095 13.1074C33.3884 13.4171 33.0463 14.2991 32.7493 15.0674C32.4523 15.8357 32.162 16.5089 32.1045 16.5632C31.8471 16.8061 31.571 16.403 30.7922 14.648C29.9197 12.6814 26.1516 4.26263 25.7306 3.33892C25.5964 3.04469 25.4468 2.80405 25.398 2.80405C25.3492 2.80405 25.0545 3.62742 24.7433 4.63388C24.4321 5.64035 23.8395 7.5025 23.4265 8.77213C23.0135 10.0418 22.3166 12.1953 21.8779 13.5578C20.8577 16.7264 20.4987 17.6654 19.7252 19.1881C18.4862 21.6271 17.0108 23.3307 14.7379 24.947C13.4084 25.8923 12.6163 26.2981 11.2649 26.7262C9.36082 27.3294 8.36297 27.5036 6.78111 27.5089C4.87873 27.5152 3.68888 27.2 2.40631 26.35C0.857031 25.3233 0.100114 24.0187 0.0150305 22.2285C-0.0276901 21.3292 0.00584166 21.112 0.312284 20.2999ZM36.8915 29.5967C36.3105 29.3882 33.4278 28.8139 32.0468 28.6316C30.0647 28.3699 26.6487 28.4743 24.8001 28.8532C22.6957 29.2845 21.742 29.6141 20.3207 30.4013C18.698 31.3 17.3893 32.4745 16.8286 33.5351C16.4946 34.1669 16.4469 34.3697 16.4469 35.1605C16.4469 36.2604 16.7105 36.8556 17.451 37.4282C18.7222 38.4113 20.6753 38.8501 22.7948 38.6292C25.7267 38.3236 28.3635 37.2089 31.7163 34.8577C32.8628 34.0537 36.8272 30.4424 37.0828 29.969C37.2055 29.7419 37.1849 29.7019 36.8915 29.5967ZM51.2174 9.44776C49.4885 3.97762 49.0152 2.54404 48.8986 2.42356C48.8459 2.36917 48.6604 2.77455 48.4864 3.3244C48.3125 3.87425 47.9919 4.88162 47.7743 5.56288C46.5767 9.31128 46.1604 10.6561 46.1604 10.7771C46.1604 10.8774 46.8213 10.9112 48.7559 10.9099C50.1834 10.909 51.4133 10.871 51.489 10.8255C51.5883 10.7658 51.5126 10.3813 51.2174 9.44776ZM38.1767 1.5878C37.9445 1.51472 38.0254 1.86762 38.7529 4.09901C39.0963 5.15187 39.5648 6.59603 39.7941 7.30826C40.8723 10.6561 41.8138 13.5868 42.2843 15.0597C42.568 15.9476 42.8322 16.7043 42.8713 16.7412C42.9104 16.7781 42.9909 16.761 43.0501 16.7033C43.2098 16.5473 42.8192 15.2435 40.6059 8.54692C39.5108 5.23351 38.5528 2.32368 38.4769 2.08067C38.401 1.83767 38.266 1.61584 38.1767 1.5878ZM43.8036 19.0451C43.5671 18.9744 43.6155 19.1979 44.2992 21.3372C45.5539 25.2628 45.8547 26.0318 46.2762 26.3918C46.5465 26.6225 46.752 26.5479 46.5327 26.2986C46.4563 26.2116 46.07 25.1843 45.6742 24.0156C44.4403 20.3726 43.9582 19.0913 43.8036 19.0451ZM49.7628 1.59118C49.4747 1.50053 49.5512 1.80434 50.9497 6.29481C51.7611 8.9005 52.3834 10.7478 52.4808 10.8399C52.5373 10.8934 52.6367 10.9061 52.7017 10.8682C52.8288 10.7941 52.7814 10.6254 51.6524 7.13935C51.2714 5.96263 50.7881 4.44246 50.5785 3.76119C49.9802 1.81605 49.9135 1.63858 49.7628 1.59118ZM52.8676 11.5008C52.6853 11.4439 52.7025 11.524 53.2849 13.4452C54.6503 17.9504 56.9 24.852 57.2621 25.6462C57.5148 26.2008 57.9137 26.6585 58.0402 26.5391C58.0757 26.5057 57.9982 26.2821 57.8681 26.0424C57.6618 25.6623 56.4715 22.175 55.8167 20.0327C54.9542 17.2103 52.9942 11.5403 52.8676 11.5008Z" fill="white"/>
<path d="M60.4837 10.1696C62.2823 9.81812 64.5207 10.6005 64.9114 11.7173C65.1885 12.5092 64.6716 13.429 63.6896 13.8916C62.8643 14.2803 62.735 14.2009 63.31 13.6586C63.9065 13.0959 64.0428 12.7121 63.8552 12.1217C63.5529 11.1699 62.8695 10.7423 61.1688 10.441C60.2048 10.2703 60.1268 10.2394 60.4837 10.1696Z" fill="white"/>
</svg>
